<?xml version="1.0" encoding="utf-8"?>
<!-- Generator: Adobe Illustrator 23.0.3, SVG Export Plug-In . SVG Version: 6.00 Build 0)  -->
<svg version="1.1" id="Layer_1" xmlns="http://www.w3.org/2000/svg" xmlns:xlink="http://www.w3.org/1999/xlink" x="0px" y="0px"
	 viewBox="0 0 314 336" style="enable-background:new 0 0 314 336;" xml:space="preserve">
<style type="text/css">
	.st0{fill:#FFFFFF;}
</style>
<g>
	<path class="st0" d="M125,110h64c2.8,0,5,2.2,5,5v91h51c2.8,0,5,2.2,5,5v24c0,1.3-0.5,2.5-1.3,3.4l-88,96c-0.9,1-2.3,1.6-3.7,1.6
		s-2.7-0.6-3.7-1.6l-88-96c-0.8-0.9-1.3-2.1-1.3-3.4v-24c0-2.8,2.2-5,5-5h51v-91C120,112.2,122.2,110,125,110z"/>
</g>
<g>
	<path class="st0" d="M5,0l304,0c2.8,0,5,2.2,5,5v144c0,2.8-2.2,5-5,5h-56c-2.8,0-5-2.2-5-5V66H66v83c0,2.8-2.2,5-5,5H5
		c-2.8,0-5-2.2-5-5L0,5C0,2.2,2.2,0,5,0z"/>
</g>
</svg>
