<?xml version="1.0" encoding="utf-8"?>
<!-- Generator: Adobe Illustrator 23.0.3, SVG Export Plug-In . SVG Version: 6.00 Build 0)  -->
<svg version="1.1" id="Evolved_Logo" xmlns="http://www.w3.org/2000/svg" xmlns:xlink="http://www.w3.org/1999/xlink" x="0px"
	 y="0px" viewBox="0 0 1408 699" style="enable-background:new 0 0 1408 699;" xml:space="preserve">
<style type="text/css">
	.st0{fill:#1C3E7C;}
	.st1{fill:#67BAE9;}
	.st2{fill:#3756A3;}
	.st3{fill:#F4E12D;}
	.st4{fill:#656563;}
	.st5{fill:#AFB6B2;}
	.st6{fill:#EC6897;}
	.st7{fill:#D3EBEF;}
	.st8{fill:#FFFFFF;}
</style>
<g id="shapes">
	<polygon class="st0" points="133.6,120 54.9,176.6 148,299.5 198.9,244.8 	"/>
	<polygon class="st1" points="198.9,244.8 148,299.5 359.2,270.7 413,218.9 	"/>
	<polygon class="st2" points="284.3,341.8 310.2,436.8 413,218.9 	"/>
	<polygon class="st3" points="508,331.2 343.8,364.8 310.2,436.8 560.8,422.4 	"/>
	<polygon class="st0" points="462.9,248.7 560.8,422.4 561.8,283.2 	"/>
	<polygon class="st1" points="615.5,58.6 751.9,246.7 743.2,349.5 462.9,248.7 	"/>
	<polygon class="st4" points="888.2,48 760.5,132.5 743.2,349.5 839.2,272.7 	"/>
	<polygon class="st5" points="939.1,217 882.4,73.9 839.2,272.7 909.3,424.3 	"/>
	<polygon class="st6" points="1073.5,84.5 939.1,217 909.3,424.3 1025.5,312 	"/>
	<polygon class="st7" points="1189.7,183.4 1073.5,84.5 1025.5,312 1189.7,418.6 	"/>
	<polygon class="st0" points="1216.5,162.2 1189.7,183.4 1189.7,418.6 1334.6,320.7 	"/>
</g>
<path id="words" class="st8" d="M90.9,617.4h12v-62.2h-12v-9.5h65.7v22.8h-10.8v-13.3h-31.2v26.1h33.6v9.5h-33.6v26.7h31.5v-13.7
	H157v23.2H90.9V617.4z M186.3,555.2h-10.5v-9.5h35.1v9.5h-12.1l21.7,57.8l21.7-57.8h-12.1v-9.5h34.7v9.5h-10.5l-28,71.7h-11.9
	L186.3,555.2z M279.8,586.4c0-24.5,16.9-42.3,41.7-42.3c24.8,0,41.7,17.7,41.7,42.3s-16.9,42.1-41.7,42.1
	C296.7,628.5,279.8,610.9,279.8,586.4z M351.3,586.4c0-19.7-12.3-32.4-29.7-32.4c-17.3,0-29.6,12.8-29.6,32.4
	c0,19.7,12.1,32.3,29.6,32.3C338.9,618.6,351.3,606,351.3,586.4z M385.4,617.4h12v-62.2h-12v-9.5h37.3v9.5h-13.6v62.2h31.5v-14.5
	h10.9v24h-66.1V617.4z M468.6,555.2h-10.5v-9.5h35.1v9.5H481l21.7,57.8l21.7-57.8h-12.1v-9.5H547v9.5h-10.5l-28,71.7h-11.9
	L468.6,555.2z M564.6,617.4h12v-62.2h-12v-9.5h65.7v22.8h-10.8v-13.3h-31.2v26.1h33.6v9.5h-33.6v26.7h31.5v-13.7h10.9v23.2h-66.1
	V617.4z M655.4,617.4h12v-62.2h-12v-9.5H693c26.4,0,43.1,14.9,43.1,40.7c0,25.6-16.7,40.5-43.1,40.5h-37.6V617.4z M693,617.4
	c19.9,0,31.1-11.5,31.1-31.1c0-19.7-11.2-31.2-31.1-31.2h-13.9v62.2H693z M803.7,622.8h13.7v-72.9h-13.7v-4.1h35.2
	c16.5,0,28.9,6.8,28.9,20.4c0,8.3-4.4,16.1-16.9,19.2c14.8,2.3,20.5,11.1,20.5,20.4c0,14.3-13.2,21.2-30.1,21.2h-37.6V622.8z
	 M837,583.6c16.1,0,26.1-5.9,26.1-17.1s-9.9-16.7-24.3-16.7h-16.8v33.7H837z M841.1,622.8c15.3,0,25.6-5.7,25.6-17.3
	c0-12.1-10.9-17.9-26.3-17.9h-18.4v35.2H841.1z M895.8,622.6h13.7V550h-13.7v-4.3h32.3v4.3h-13.7v72.6h13.7v4.3h-32.3V622.6z
	 M950.7,622.6h13.7V550h-13.7v-4.3h18.7l53.2,73.4V550h-13.7v-4.3h32v4.3h-13.7v76.9h-4.4L969,552.8v69.8h13.7v4.3h-32V622.6z
	 M1054.7,622.6h12.1l29.3-72.6h-12.7v-4.3h20.1l30.9,76.9h12.1v4.3h-31.6v-4.3h14.5l-9.7-24h-38.5l-9.6,24h14.5v4.3h-31.6V622.6z
	 M1118.2,594.2l-17.5-43.8l-17.6,43.8H1118.2z M1163.7,622.6h13.7V550h-13.7v-4.3h35.9c10.8,0,30.9,3.1,30.9,23.5
	c0,13.5-8.8,20.7-20.7,23.2l16.4,30.3h13.5v4.3h-16.4l-18.3-33.7c-1.9,0.3-3.6,0.3-5.5,0.3h-17.3v29.2h13.7v4.3h-32.3V622.6z
	 M1199.5,589.2c17.1,0,26-6.8,26-19.6s-8.9-19.6-26-19.6h-17.3v39.2H1199.5z M1276.3,622.6h13.7v-27.1l-27.9-45.6h-12.3v-4.3h31.7
	v4.3h-14.1l24.9,41.3l25.1-41.3h-14v-4.3h31.5v4.3h-12.3l-27.9,45.6v27.1h13.7v4.3h-32.3V622.6z"/>
</svg>
