<?xml version="1.0" encoding="utf-8"?>
<!-- Generator: Adobe Illustrator 23.0.3, SVG Export Plug-In . SVG Version: 6.00 Build 0)  -->
<svg version="1.1" id="Layer_1" xmlns="http://www.w3.org/2000/svg" xmlns:xlink="http://www.w3.org/1999/xlink" x="0px" y="0px"
	 viewBox="0 0 229.4 414" style="enable-background:new 0 0 229.4 414;" xml:space="preserve">
<g>
	<g>
		<path d="M206.1,35.7C185.9,12,155.2,0,114.7,0C74.3,0,43.5,12,23.3,35.7C3,59.5,0,87.4,0,101.9v168.1c0,14.5,3,42.4,23.3,66.2
			C43.5,360,74.3,372,114.7,372c40.4,0,71.2-12,91.4-35.7c20.3-23.8,23.3-51.7,23.3-66.2V101.9C229.4,87.4,226.4,59.5,206.1,35.7
			L206.1,35.7z M114.7,101.6c-8.4,0-15.2-6.8-15.2-15.2V53.8c0-8.4,6.8-15.2,15.2-15.2c8.4,0,15.2,6.8,15.2,15.2v32.6
			C129.9,94.8,123.1,101.6,114.7,101.6L114.7,101.6z M217.4,270.1c0,15-5,89.9-102.7,89.9C17,360,12,285.1,12,270.1V101.9
			c0-14.7,4.8-86.8,96.7-89.8v15.2C96.6,30,87.5,40.9,87.5,53.8v32.6c0,12.9,9.1,23.8,21.2,26.5v22.3c0,3.3,2.7,6,6,6
			c3.3,0,6-2.7,6-6v-22.3c12.1-2.7,21.2-13.6,21.2-26.5V53.8c0-12.9-9.1-23.8-21.2-26.5V12.1c92,3,96.7,75.1,96.7,89.8V270.1z
			 M217.4,270.1"/>
	</g>
	<path d="M108.7,365.9V408c0,3.3,2.7,6,6,6c3.3,0,6-2.7,6-6v-42.1"/>
</g>
</svg>
